<svg width="56" height="56" viewBox="0 0 56 56" fill="none" xmlns="http://www.w3.org/2000/svg">
<path fill-rule="evenodd" clip-rule="evenodd" d="M26.1454 0.296277C24.7648 0.673465 24.9961 0.541679 11.7794 8.49131C0.634272 15.1949 0 15.6432 0 16.8148C0 18.1036 0.353346 18.354 12.3575 25.5707C18.8006 29.4444 24.5388 32.8257 25.1088 33.0849C25.9036 33.4461 26.5804 33.558 28.0097 33.5639C29.6817 33.5709 30.0202 33.4987 31.2916 32.8636C32.0711 32.4742 37.8288 29.0755 44.0862 25.3111C55.2123 18.6176 55.4701 18.4473 55.7689 17.5823C56.3958 15.768 56.5975 15.9282 44.6157 8.72423C31.0004 0.537958 31.2082 0.656171 29.7747 0.282704C28.3147 -0.0977678 27.5778 -0.0951408 26.1454 0.296277ZM27.13 4.72402C26.6068 4.92104 8.02216 16.0894 7.46184 16.5434L6.95534 16.9536L15.1282 21.8696C27.044 29.0368 27.123 29.081 28.034 29.0828C28.6864 29.0839 30.6396 27.9983 38.9431 23.0199C49.0083 16.9854 49.0551 16.9538 48.5707 16.5613C48.3029 16.3446 43.7348 13.5567 38.4193 10.3665C28.8074 4.59749 28.2307 4.30918 27.13 4.72402ZM1.03925 25.1611C0.828558 25.2839 0.499936 25.687 0.308713 26.0567C-0.147464 26.9396 0.0538226 27.9718 0.823088 28.694C1.15259 29.0033 7.20016 32.7147 14.2623 36.9418C25.6026 43.7292 27.2081 44.6269 28.0064 44.6269C28.8048 44.6269 30.4088 43.7298 41.7491 36.9396C48.8105 32.7115 54.8017 29.0567 55.0629 28.8181C55.8427 28.1051 56.0936 27.2638 55.7958 26.3612C55.4672 25.3649 54.8284 24.9247 53.7106 24.9247C52.9308 24.9247 51.2905 25.8441 40.4118 32.3792L28.0025 39.8338L15.5921 32.3792C4.69983 25.8367 3.074 24.9256 2.30189 24.9313C1.81793 24.935 1.24973 25.0383 1.03925 25.1611ZM1.36875 35.6475C0.81368 35.8824 0.00196863 37.0926 0.000874679 37.6874C-0.00131322 38.6909 0.695096 39.3678 3.44332 41.0337C26.3108 54.896 27.1871 55.4001 28.2167 55.2861C29.4898 55.1451 30.193 54.38 30.193 53.1354C30.193 52.4654 30.0495 52.1131 29.5914 51.6604C28.6687 50.7482 3.30373 35.6241 2.5314 35.5256C2.16208 35.4785 1.63874 35.5335 1.36875 35.6475ZM45.1941 38.0766L44.4273 38.7504L44.366 41.5245L44.305 44.2986L41.5478 44.408C38.7781 44.5179 38.4073 44.6232 37.6936 45.5026C37.547 45.6832 37.4238 46.2103 37.4201 46.6738C37.4144 47.3454 37.5641 47.6676 38.157 48.2609L38.9009 49.0052H41.6576H44.4144V51.7635V54.5218L45.1583 55.2661C45.9857 56.0941 46.6819 56.2068 47.7034 55.6783C48.7698 55.1267 49.009 54.3673 49.009 51.5337V49.0052L51.5798 49.0043C54.4855 49.0035 55.2747 48.7213 55.779 47.503C56.1396 46.6317 55.9317 45.8281 55.1408 45.0367C54.5155 44.4111 54.4991 44.408 51.7607 44.408H49.009V41.8796C49.009 40.0646 48.9166 39.1727 48.6821 38.7187C47.9233 37.2509 46.4441 36.9785 45.1941 38.0766Z" fill="#90A4AE"/>
</svg>
