<svg width="47" height="40" viewBox="0 0 47 40" fill="none" xmlns="http://www.w3.org/2000/svg">
<path fill-rule="evenodd" clip-rule="evenodd" d="M8.73839 7.41191C0.413862 15.9372 0 16.5349 0 20.031C0 23.4022 0.534078 24.1792 8.70517 32.6913C15.1268 39.3809 15.8005 40 16.6586 40C17.7023 40 18.7223 39.1841 18.7223 38.3496C18.7223 37.5971 17.8163 36.5407 11.2782 29.6692C8.06552 26.2927 5.18678 23.1817 4.88132 22.7558L4.32556 21.9815H25.0172H45.7092L46.3086 21.2194C46.966 20.3838 46.8922 19.4043 46.1067 18.5327C45.6915 18.0721 44.3221 18.04 25.0034 18.04C5.41342 18.04 4.35793 18.0144 4.6116 17.5473C4.75885 17.2762 7.99401 13.8349 11.8007 9.89958C17.9799 3.51204 18.7223 2.64546 18.7223 1.8214C18.7223 1.18653 18.5269 0.761124 18.0965 0.459878C16.6029 -0.586601 16.4055 -0.439919 8.73839 7.41191Z" fill="#90A4AE"/>
</svg>
