<svg width="230" height="230" viewBox="0 0 230 230" fill="none" xmlns="http://www.w3.org/2000/svg">
<path fill-rule="evenodd" clip-rule="evenodd" d="M181.073 2.36125C176.78 4.20983 85.0506 95.484 81.5246 101.416C78.5176 106.473 68.9186 131.777 66.0886 142.106C64.3016 148.625 64.1486 150.474 65.1046 154.024C66.5446 159.379 70.6056 163.443 75.9556 164.884C80.9606 166.234 88.3216 164.477 106.939 157.49C131.017 148.454 125.42 152.947 177.852 100.559C208.951 69.4877 225.805 51.9287 227.102 49.2514C229.502 44.2961 229.715 35.2764 227.553 30.099C225.55 25.2999 205.807 5.31378 200.557 2.7696C195.577 0.357536 186.185 0.160367 181.073 2.36125ZM179.064 25.3059L170.6 33.8212L183.328 46.5601L196.056 59.299L204.564 50.8277C216.06 39.3819 216.052 39.2398 203.305 26.5289C190.579 13.8401 190.467 13.8341 179.064 25.3059ZM27.4016 23.7295C13.5016 28.7378 3.85956 40.1116 1.08056 54.7821C-0.34144 62.2855 -0.268439 188.724 1.16156 196.469C4.20456 212.941 17.5316 226.092 34.0776 228.947C38.5896 229.726 62.8566 229.971 113.573 229.751C196.293 229.391 191.968 229.804 203.193 221.179C210.192 215.801 215.429 208.057 217.608 199.86C218.656 195.92 219.053 188.344 219.061 172.096L219.073 149.749L216.15 146.824C212.453 143.124 209.693 143.124 205.996 146.824L203.073 149.749L203.063 172.096C203.054 193.391 202.944 194.678 200.722 199.453C199.439 202.209 196.75 205.905 194.746 207.667C187.539 214 188.101 213.958 110.441 213.958C63.4196 213.958 38.4866 213.597 35.0786 212.865C28.4456 211.441 22.3246 206.683 19.1276 200.464L16.5726 195.496V125.41C16.5726 55.4697 16.5776 55.3146 18.7346 51.3192C19.9246 49.1173 22.3996 45.8745 24.2346 44.114C30.3256 38.27 32.7016 37.8096 56.7906 37.7926C80.4306 37.7766 82.5536 37.3732 84.9126 32.449C86.4836 29.1712 85.0456 24.3871 82.0016 22.7567C80.9896 22.2142 69.7996 21.8099 56.3886 21.8299C35.7406 21.8609 31.8846 22.1142 27.4016 23.7295ZM131.812 72.5984L105.065 99.3813L117.83 112.128L130.594 124.875L157.572 97.86L184.551 70.8439L172.077 58.3292C165.216 51.4463 159.368 45.8144 159.081 45.8144C158.794 45.8144 146.523 57.8668 131.812 72.5984ZM92.3856 115.624C88.4796 124.876 82.0406 142.549 81.4736 145.575C80.9766 148.227 81.1776 148.903 82.4636 148.903C85.6106 148.903 115.586 137.705 117.54 135.799C118.154 135.201 114.335 130.67 107.056 123.364C100.758 117.042 95.2376 111.871 94.7876 111.871C94.3386 111.871 93.2576 113.56 92.3856 115.624Z" fill="#1976D2"/>
</svg>
