<svg width="85" height="85" viewBox="0 0 85 85" fill="none" xmlns="http://www.w3.org/2000/svg">
<path fill-rule="evenodd" clip-rule="evenodd" d="M37.4344 0.590405C27.3616 1.84489 18.815 6.19153 11.8142 13.6205C5.96124 19.8311 2.2498 27.546 0.96347 36.1765C0.295983 40.6536 0.332792 43.8635 1.10413 48.4245C1.93233 53.3214 2.79306 56.0503 4.78961 60.1123C8.74589 68.1596 15.4076 74.6792 24.0826 78.993C28.2762 81.0782 31.0954 82.0227 36.4553 83.1387C40.7057 84.024 40.7734 84.0273 55.5101 84.0602C70.1028 84.0928 70.3282 84.0832 72.4713 83.3422C77.8941 81.4671 82.0252 77.2809 83.6954 71.969C84.4138 69.6833 84.4309 69.2701 84.422 54.3418C84.4121 37.5345 84.3349 36.6637 82.2506 29.8636C78.0436 16.1376 66.3473 4.94625 52.5522 1.4481C50.2083 0.853399 44.4323 0.0982766 42.5527 0.140356C41.5451 0.16271 39.2419 0.365544 37.4344 0.590405ZM38.9133 7.31353C33.3962 7.90099 27.9522 9.89317 23.1171 13.0945C15.2804 18.2833 10.3287 25.6446 7.97619 35.6035C7.26203 38.6266 7.44378 46.7203 8.30057 50.0481C9.11627 53.2172 10.752 57.1677 12.3482 59.825C15.1996 64.5707 20.6387 69.5909 25.8412 72.2787C34.3658 76.6829 39.5548 77.4814 58.4679 77.2999L69.9706 77.1895L71.627 76.3147C73.6423 75.2509 75.862 72.9089 76.8194 70.8369C77.5023 69.3588 77.5335 68.8059 77.6361 56.4787C77.7445 43.4404 77.4826 38.3232 76.5088 34.4529C73.827 23.7951 66.528 14.7559 57.0767 10.3879C54.4321 9.16566 54.0624 9.03647 50.1856 7.9812C47.4381 7.23331 42.4443 6.93744 38.9133 7.31353ZM23.6311 37.1404C23.2696 37.236 22.493 37.6766 21.9053 38.1197C17.9967 41.0656 20.0192 47.1118 24.9122 47.1082C30.0788 47.1046 31.9666 40.9304 27.7392 37.862C26.8663 37.2281 24.7229 36.8517 23.6311 37.1404ZM40.8 37.3777C39.1108 37.9951 38.5823 38.4912 37.8488 40.1457C36.2999 43.6403 38.6747 47.1029 42.6234 47.1072C44.3695 47.1092 44.6341 47.0083 45.8448 45.8767C49.9694 42.0219 46.069 35.4513 40.8 37.3777ZM58.507 37.2443C56.5016 37.8754 55.0171 39.9741 55.0171 42.1784C55.0171 43.8188 55.6448 45.1058 57.0025 46.2485C58.393 47.4192 61.2749 47.4747 62.9382 46.3633C65.9141 44.3747 65.8251 39.7923 62.7719 37.7913C61.7452 37.1183 59.7289 36.8596 58.507 37.2443Z" fill="#9D9D9D"/>
</svg>
