<svg width="46" height="53" viewBox="0 0 46 53" fill="none" xmlns="http://www.w3.org/2000/svg">
<path fill-rule="evenodd" clip-rule="evenodd" d="M21.2355 2.44137C17.6949 6.40306 15.3672 10.9102 13.7961 16.847C13.4803 18.0399 13.166 19.0163 13.0976 19.0163C12.8372 19.0167 11.6718 16.1737 11.1295 14.2155C10.8185 13.0919 10.5053 12.1023 10.4333 12.0165C10.2407 11.7867 5.10396 16.8426 3.84032 18.5057C2.54651 20.2087 1.04854 23.1451 0.622233 24.8144C-0.694097 29.9669 0.112025 36.1427 2.71886 40.8761C4.37801 43.8888 7.26547 47.0039 10.1602 48.904C16.5728 53.1129 25.0719 53.81 32.2933 50.7192C34.9315 49.5899 36.9304 48.208 39.2734 45.8935C42.838 42.3721 44.8476 38.6345 45.6635 34.0099C46.4781 29.392 45.7994 24.7218 43.7838 21.0729C41.9215 17.7012 39.4325 15.0715 32.75 9.41458C30.3064 7.34609 27.1377 4.52334 25.7081 3.1419C24.2788 1.76025 23.0519 0.629883 22.9819 0.629883C22.9118 0.629883 22.1259 1.44502 21.2355 2.44137ZM22.0454 8.43784C19.9082 11.956 18.5828 15.1487 17.5866 19.1795C17.3006 20.3364 16.8677 21.6014 16.6244 21.9902C16.001 22.9876 14.657 23.7159 13.3884 23.7443C11.5928 23.7843 10.474 23.0104 9.14305 20.8079L8.8313 20.2921C8.63251 19.9633 8.17474 19.9149 7.91165 20.195C3.26006 25.1486 3.05941 33.7547 7.4436 40.2744C8.26687 41.4987 11.4147 44.8845 11.5726 44.7154C11.6032 44.6825 11.5007 44.058 11.3446 43.3276C10.5555 39.6339 11.393 36.5826 13.9453 33.8546C14.5704 33.1864 16.1512 31.7157 17.4582 30.5865C18.7653 29.4572 20.5579 27.8445 21.442 27.0026C22.3401 26.1472 23.7532 26.153 24.6444 27.0157L24.8516 27.2163C25.8429 28.1756 27.6411 29.7986 28.8475 30.8227C32.4227 33.8579 33.8037 35.6054 34.5325 38.0159C34.9347 39.3461 34.9828 42.2203 34.6247 43.5015C34.4879 43.9903 34.4251 44.439 34.4852 44.4982C34.7363 44.7464 38.0796 41.0587 39.0279 39.4875C41.588 35.2455 42.4138 29.801 41.1226 25.6736C40.6771 24.2495 39.3056 21.8133 38.1312 20.3599C36.707 18.597 34.1215 16.1731 29.168 11.956C26.8001 9.94023 24.46 7.94325 23.968 7.51852C23.4998 7.11423 22.7806 7.22758 22.4594 7.75625L22.0454 8.43784ZM20.8679 33.2366C16.2227 37.1877 15.5546 38.1011 15.43 40.6718C15.3717 41.8732 15.4519 42.4577 15.802 43.3791C18.2067 49.7098 27.0017 50.0796 29.9283 43.973C30.4907 42.7993 30.5802 42.3882 30.5802 40.9782C30.5802 38.953 30.1159 37.9211 28.4392 36.2206C27.407 35.1738 23.1672 31.4781 22.9992 31.4787C22.9635 31.4789 22.0044 32.2701 20.8679 33.2366Z" fill="#B0BEC5"/>
</svg>
