<svg width="102" height="102" viewBox="0 0 102 102" fill="none" xmlns="http://www.w3.org/2000/svg">
<path fill-rule="evenodd" clip-rule="evenodd" d="M89.1178 12.4608C82.6966 6.29608 75.8037 2.75895 66.821 1.0192C62.3949 0.162046 53.8095 0.53872 49.0795 1.7976C39.7114 4.29065 31.7525 9.61371 25.9072 17.2954C22.9273 21.212 21.1693 24.5761 19.5322 29.4958C15.2707 42.3021 17.3979 56.8341 25.0576 67.2387L26.929 69.7812L13.9617 82.7528C4.97226 91.7455 0.897752 96.09 0.680186 96.9158C-0.0687683 99.7533 1.5763 101.886 4.51485 101.886H6.33613L19.5218 88.7218L32.7071 75.5576L35.2463 77.4266C45.6474 85.0836 60.1814 87.2108 72.986 82.9497C77.9058 81.3126 81.2699 79.5545 85.1865 76.5746C92.8423 70.7489 98.1101 62.8898 100.718 53.4023C101.661 49.9682 101.767 48.8983 101.767 42.8203C101.767 36.701 101.665 35.6859 100.691 32.1345C98.5834 24.4564 94.6529 17.7746 89.1178 12.4608ZM92.5178 34.4676C88.9786 21.3106 78.8305 11.9572 65.2929 9.37502C59.3175 8.2351 51.5078 9.28792 45.6036 12.0288C32.5937 18.0686 24.9741 30.6688 25.7807 44.809C26.3722 55.1783 31.2159 64.0257 39.7743 70.371C52.5415 79.837 70.9822 78.7185 82.5833 67.7749C87.6307 63.0131 91.2474 56.8154 92.735 50.3775C93.7703 45.8953 93.6732 38.7625 92.5178 34.4676Z" fill="#B0BEC5"/>
</svg>
