<svg width="75" height="85" viewBox="0 0 75 85" fill="none" xmlns="http://www.w3.org/2000/svg">
<path fill-rule="evenodd" clip-rule="evenodd" d="M34.7645 3.06252C29.1147 9.45693 25.4004 16.7318 22.8934 26.3141C22.3895 28.2395 21.888 29.8154 21.7788 29.8154C21.3634 29.816 19.5036 25.2273 18.6383 22.0667C18.1421 20.2531 17.6422 18.6558 17.5274 18.5173C17.2201 18.1464 9.02331 26.3069 7.00692 28.9913C4.94239 31.7401 2.55207 36.4795 1.87181 39.1739C-0.228668 47.4904 1.05767 57.4585 5.2174 65.0984C7.86492 69.9611 12.4724 74.9891 17.0915 78.0561C27.3241 84.8494 40.8862 85.9745 52.4095 80.9858C56.6193 79.163 59.809 76.9326 63.5476 73.1969C69.2357 67.5131 72.4425 61.4804 73.7443 54.016C75.0442 46.5625 73.9613 39.0245 70.7449 33.1349C67.7733 27.6928 63.8015 23.4483 53.1382 14.3177C49.239 10.979 44.1827 6.42295 41.9015 4.19321C39.6207 1.96315 37.663 0.138672 37.5512 0.138672C37.4394 0.138672 36.1854 1.45435 34.7645 3.06252ZM36.0568 12.7412C32.6466 18.4197 30.5316 23.573 28.9419 30.0788C28.4855 31.9462 27.7947 33.988 27.4066 34.6155C26.4117 36.2253 24.2671 37.4008 22.2428 37.4467C19.3776 37.5113 17.5924 36.2622 15.4685 32.7072L14.3395 30.8178L13.5036 31.718C6.081 39.7133 5.76082 53.6042 12.7567 64.1273C14.0704 66.1035 19.0934 71.5683 19.3453 71.2953C19.3941 71.2422 19.2306 70.2342 18.9816 69.0553C17.7223 63.0936 19.0588 58.1685 23.1314 53.7654C24.1289 52.6868 26.6515 50.313 28.7371 48.4905C30.8227 46.6676 33.6833 44.0646 35.0939 42.7058L37.659 40.235L40.5347 43.0507C42.1165 44.5992 44.9859 47.2186 46.911 48.8717C52.6159 53.7707 54.8196 56.5913 55.9826 60.482C56.6243 62.6289 56.7011 67.2681 56.1297 69.336C55.9114 70.125 55.8111 70.8492 55.9071 70.9448C56.3077 71.3454 61.6427 65.3932 63.1559 62.8571C67.2411 56.0103 68.5587 47.2226 66.4985 40.5608C65.7876 38.2621 63.599 34.3299 61.7251 31.9841C59.4525 29.1387 55.3267 25.2263 47.4224 18.4197C43.6439 15.1661 39.9098 11.9429 39.1247 11.2573L37.6969 10.0102L36.0568 12.7412ZM34.1779 52.7679C26.7656 59.1452 25.6995 60.6195 25.5007 64.7687C25.4077 66.7079 25.5356 67.6513 26.0942 69.1384C29.9314 79.3566 43.9657 79.9534 48.6356 70.097C49.5331 68.2026 49.6759 67.5392 49.6759 65.2633C49.6759 61.9945 48.935 60.329 46.2594 57.5842C44.6123 55.8946 37.847 49.9295 37.5789 49.9305C37.5218 49.9308 35.9915 51.2079 34.1779 52.7679Z" fill="#9D9D9D"/>
</svg>
