<svg width="40" height="40" viewBox="0 0 40 40" fill="none" xmlns="http://www.w3.org/2000/svg">
<path fill-rule="evenodd" clip-rule="evenodd" d="M5.17066 0.231268C2.7077 0.765506 0.71687 2.83541 0.171613 5.4286C0.0758146 5.88422 -0.00138759 7.53711 1.89177e-05 9.10168C0.00408216 13.2815 0.341176 14.5325 1.91115 16.1926C2.79506 17.1273 4.11109 17.855 5.40242 18.1232C5.95814 18.2386 7.50233 18.2816 9.73446 18.2438C12.8619 18.1908 13.2875 18.1512 14.0624 17.8413C15.7978 17.1471 17.2343 15.6531 17.9058 13.8436C18.1702 13.1313 18.2038 12.5908 18.2038 9.05495V5.06926L17.6379 3.897C16.6804 1.91338 14.9143 0.535587 12.83 0.146552C11.5804 -0.0866492 6.37025 -0.0291303 5.17066 0.231268ZM26.9165 0.226423C24.9163 0.661097 23.2319 2.04218 22.2985 4.01282L21.7982 5.06926V9.05495C21.7982 12.5908 21.8318 13.1313 22.0963 13.8436C22.7679 15.6534 24.1698 17.1113 25.927 17.8275C26.7268 18.1536 27.0944 18.188 30.3553 18.2427C35.1093 18.3224 36.0387 18.1007 37.8049 16.4652C39.5893 14.8129 40.0003 13.4545 39.9997 9.21125C39.9991 4.86076 39.5549 3.39121 37.7468 1.75724C36.1279 0.294101 34.9225 -0.00927959 30.7843 0.00463124C28.9694 0.010727 27.5296 0.0932539 26.9165 0.226423ZM5.72248 3.42732C4.88217 3.68944 4.08061 4.38185 3.67507 5.19571C3.29094 5.9669 3.27921 6.08288 3.27921 9.13576C3.27921 12.2574 3.2825 12.2876 3.70898 13.1288C3.99013 13.6835 4.37285 14.139 4.8159 14.4464L5.49306 14.9163L8.80101 14.9663C12.4717 15.0219 12.973 14.9427 13.8552 14.168C14.897 13.2534 14.9928 12.8331 14.9967 9.16717C15.0009 5.14617 14.8834 4.75807 13.3592 3.75946C12.7395 3.35355 12.7056 3.34964 9.45222 3.31885C7.6472 3.30165 5.96877 3.35042 5.72248 3.42732ZM26.8673 3.70163C26.3127 3.98281 25.8573 4.3656 25.5499 4.80871L25.0801 5.48596L25.0301 8.7944C24.9744 12.4656 25.0537 12.967 25.8282 13.8493C26.7427 14.8912 27.163 14.9871 30.8283 14.991C33.4121 14.9938 34.1946 14.945 34.655 14.7524C35.4615 14.4155 35.9222 13.9505 36.3514 13.0406C36.7 12.301 36.7199 12.0908 36.7213 9.12466C36.7229 6.08225 36.7113 5.96706 36.327 5.19571C35.9326 4.40405 35.2087 3.76665 34.3294 3.43685C34.075 3.34135 32.5874 3.2718 30.8021 3.2718C27.7437 3.2718 27.7068 3.27586 26.8673 3.70163ZM4.9814 21.9357C2.49548 22.6425 0.610131 24.7226 0.137388 27.2806C0.0337754 27.8408 -0.0067007 29.4576 0.034088 31.406C0.0947242 34.3006 0.136919 34.7045 0.470887 35.5862C1.17305 37.4407 2.63941 38.903 4.4513 39.5561C5.26474 39.8491 5.81343 39.9032 8.59269 39.9634C12.0858 40.0392 13.1362 39.9224 14.4761 39.3088C16.1914 38.5234 17.7069 36.604 18.1243 34.6884C18.2502 34.1097 18.2917 32.6793 18.2509 30.3119C18.1959 27.1231 18.1579 26.715 17.8431 25.9355C17.1347 24.1809 15.8193 22.8648 14.0624 22.1532C13.2676 21.8312 12.9208 21.8023 9.45222 21.768C6.73344 21.7413 5.50337 21.7874 4.9814 21.9357ZM26.5685 21.9659C24.3278 22.5681 22.4196 24.5751 21.8858 26.8913C21.7989 27.2683 21.726 29.0214 21.7239 30.7871C21.7188 35.1015 22.0111 36.2025 23.6111 37.8944C25.2112 39.5867 26.6296 39.9959 30.9098 40C34.3401 40.0031 35.49 39.7943 36.8379 38.9229C38.4574 37.876 39.4879 36.3425 39.8339 34.4642C40.0482 33.3009 40.0577 28.2936 39.8476 27.1681C39.3754 24.6373 37.3 22.4506 34.8295 21.881C33.7337 21.6283 27.5896 21.6914 26.5685 21.9659ZM5.57417 25.1566C4.81747 25.3838 4.0417 26.1018 3.6546 26.9332C3.30109 27.6923 3.28234 27.8915 3.28422 30.859C3.28625 34.3004 3.38517 34.7657 4.30847 35.6798C5.23145 36.5934 5.43242 36.6379 8.89087 36.6931C12.3807 36.7487 12.938 36.6515 13.9346 35.8128C14.8838 35.0138 14.9929 34.5093 14.9967 30.8931C15.0004 27.3575 14.9176 26.9124 14.0932 26.033C13.2195 25.1012 12.7524 25.0035 9.2178 25.0146C7.45576 25.02 5.81609 25.084 5.57417 25.1566ZM26.954 25.2848C26.1714 25.6459 25.3826 26.5291 25.1543 27.3005C25.0424 27.6786 24.9979 29.0732 25.0301 31.1977L25.0801 34.5061L25.5516 35.1767C25.8455 35.5946 26.3377 36.0115 26.8587 36.2837C27.6934 36.7198 27.6981 36.7203 30.8624 36.7203C34.0269 36.7203 34.0313 36.7198 34.8663 36.2836C35.475 35.9655 35.8303 35.6395 36.1735 35.0844L36.6447 34.3222V30.7816V27.2412L36.2135 26.5898C35.9765 26.2314 35.4897 25.7442 35.1316 25.5071L34.4807 25.0758L31.0306 25.0358C27.9519 25 27.5132 25.0269 26.954 25.2848Z" fill="#90A4AE"/>
</svg>
