<svg width="85" height="85" viewBox="0 0 85 85" fill="none" xmlns="http://www.w3.org/2000/svg">
<path fill-rule="evenodd" clip-rule="evenodd" d="M27.924 0.42955C24.0428 1.07462 18.6983 3.9181 16.2291 6.65149C6.15776 17.799 10.0958 35.0935 23.9561 40.5856C32.8585 44.1133 43.5118 40.8406 48.6792 32.9904C52.4918 27.1986 53.4198 20.7651 51.3373 14.5622C48.0128 4.65813 38.182 -1.27595 27.924 0.42955ZM28.3516 7.42012C25.6869 8.06748 23.564 9.26199 21.6075 11.2156C16.0467 16.7675 16.0464 25.4143 21.6065 30.9714C27.5885 36.9502 37.2497 36.3949 42.4471 29.773C46.9261 24.0663 46.4752 16.318 41.3672 11.2126C37.8143 7.66165 33.0596 6.27622 28.3516 7.42012ZM25.2804 49.841C12.8943 52.6418 3.70171 61.5366 0.951223 73.3825C-0.0369138 77.638 -0.240654 80.9113 0.40474 82.159C1.49606 84.2697 4.26692 84.7258 5.83834 83.0535C6.42787 82.4259 6.64805 81.6543 6.89089 79.3616C7.51098 73.5142 9.1156 69.4562 12.4812 65.224C15.6037 61.2974 20.4747 58.1723 25.4604 56.8973C28.5333 56.1113 33.9932 56.0406 36.9931 56.7481C45.2324 58.6905 51.9456 64.7216 54.6195 72.5829C55.4434 75.0048 56.1328 78.6988 56.1328 80.6908C56.1328 83.1633 58.8586 84.832 61.0478 83.6999C62.5995 82.8978 63.1572 81.2974 62.8795 78.4434C61.5565 64.8359 53.0106 54.3276 40.1235 50.4618C37.6888 49.7316 36.467 49.5784 32.3084 49.4815C28.8277 49.4003 26.7624 49.5058 25.2804 49.841Z" fill="#9D9D9D"/>
</svg>
