<svg width="48" height="32" viewBox="0 0 48 32" fill="none" xmlns="http://www.w3.org/2000/svg">
<path fill-rule="evenodd" clip-rule="evenodd" d="M1.07127 0.25597C0.812848 0.384401 0.443921 0.811627 0.25147 1.20501C-0.0620145 1.84585 -0.0714113 1.99252 0.162199 2.6138C0.337547 3.08033 0.63656 3.41485 1.07596 3.63599C1.68677 3.94362 3.1715 3.96487 24 3.96487C44.8285 3.96487 46.3132 3.94362 46.924 3.63599C47.3634 3.41485 47.6625 3.08033 47.8378 2.6138C48.0714 1.99252 48.062 1.84585 47.7485 1.20501C47.5561 0.811627 47.1871 0.384401 46.9287 0.25597C46.2429 -0.0853232 1.75706 -0.0853232 1.07127 0.25597ZM0.65573 14.6645C0.151298 15.1155 0.0460508 15.3456 0.0460508 16C0.0460508 16.6544 0.151298 16.8845 0.65573 17.3355L1.26522 17.8804H24H46.7348L47.3443 17.3355C47.8487 16.8845 47.9539 16.6544 47.9539 16C47.9539 15.3456 47.8487 15.1155 47.3443 14.6645L46.7348 14.1196H24H1.26522L0.65573 14.6645ZM1.07596 28.364C0.63656 28.5851 0.337547 28.9197 0.162199 29.3862C-0.0714113 30.0075 -0.0620145 30.1541 0.25147 30.795C0.443921 31.1884 0.812848 31.6156 1.07127 31.744C1.75706 32.0853 46.2429 32.0853 46.9287 31.744C47.1871 31.6156 47.5561 31.1884 47.7485 30.795C48.062 30.1541 48.0714 30.0075 47.8378 29.3862C47.6625 28.9197 47.3634 28.5851 46.924 28.364C46.3132 28.0564 24 28.364 24 28.364C24 28.364 1.68677 28.0564 1.07596 28.364Z" fill="#90A4AE"/>
</svg>
