<svg width="52" height="49" viewBox="0 0 52 49" fill="none" xmlns="http://www.w3.org/2000/svg">
<path fill-rule="evenodd" clip-rule="evenodd" d="M46.9947 0.743482C46.5991 0.882024 45.1024 2.20672 43.2382 4.06808C41.5337 5.77011 39.9865 7.28049 39.7997 7.42459C39.5147 7.64465 39.2388 7.57384 38.0702 6.98015C34.5144 5.17333 30.1219 4.16463 25.8091 4.16463C17.898 4.16463 10.6758 7.58969 5.20159 13.9379C0.38687 19.5212 -0.872612 23.2962 0.551478 27.8763C1.31836 30.3433 4.57775 34.7862 7.84895 37.8236C8.43941 38.3719 8.45977 39.2997 7.89392 39.8733L5.66571 42.1322C2.177 45.6686 1.88299 46.1431 2.39879 47.4032C2.6987 48.1356 3.52622 48.6299 4.45282 48.6299C5.02641 48.6299 5.54526 48.1902 8.70292 45.0274C10.6811 43.046 12.3994 41.4249 12.5212 41.4249C12.6431 41.4249 13.3329 41.7361 14.054 42.1163C15.9253 43.1032 18.6646 44.0656 20.9089 44.5247C23.3166 45.0173 28.0023 45.0648 30.4985 44.622C36.9774 43.4725 42.7181 40.0199 47.2801 34.5286C50.2404 30.9654 51.6431 28.2564 51.9656 25.4793C52.1229 24.1252 51.7229 21.6745 51.1184 20.2884C50.1737 18.1224 47.7072 14.8488 44.9427 12.0916C44.0354 11.1866 43.2929 10.3517 43.2929 10.2364C43.2929 10.1209 44.7032 8.60189 46.427 6.86075C48.6161 4.64922 49.597 3.5135 49.6801 3.09355C49.8032 2.47022 49.4078 1.23507 49.0041 0.982689C48.4334 0.625731 47.6104 0.527743 46.9947 0.743482ZM22.9459 8.58398C19.3353 9.12086 16.5095 10.2261 13.3317 12.3444C10.3386 14.3393 6.59455 18.4763 5.12224 21.4155C4.40765 22.8423 4.3285 23.1548 4.33115 24.5445C4.33359 25.8639 4.42902 26.2832 4.98714 27.4265C6.04681 29.5975 8.79895 33.0228 10.9433 34.8393C11.5346 35.3401 12.4134 35.2948 12.9499 34.7357L14.4186 33.2054C15.7513 31.8167 16.8417 30.5933 16.8417 30.4864C16.8417 30.3796 16.659 29.93 16.4358 29.4872C15.553 27.7364 15.3324 26.7561 15.3241 24.5445C15.3116 21.3414 16.2303 19.063 18.4563 16.7751C20.5252 14.6488 22.8144 13.7405 26.0996 13.7432C28.1026 13.7448 28.4768 13.806 29.6604 14.3243C32.3342 15.4957 31.8054 15.6144 34.1182 13.3232C35.2475 12.2046 36.1696 11.1916 36.1676 11.0722C36.1631 10.8239 33.6002 9.63921 32.0788 9.182C30.7996 8.79787 27.0427 8.28384 25.6927 8.30834C25.1332 8.31863 23.8971 8.44256 22.9459 8.58398ZM37.5386 15.8637C34.7327 18.6762 34.9142 18.0514 36.0925 20.8391C36.5934 22.0244 36.659 22.4357 36.6671 24.4416C36.6746 26.3038 36.5926 26.9438 36.2046 28.0441C35.0926 31.1979 32.7006 33.6533 29.5587 34.8662C28.5525 35.2547 27.9443 35.337 26.0996 35.3354C23.7837 35.3331 23.8061 35.3385 20.5532 33.9911C20.1523 33.825 19.6907 33.9178 19.385 34.2259L17.8573 35.7656C16.7392 36.8925 15.8244 37.9234 15.8244 38.0566C15.8244 38.1896 16.5341 38.5991 17.4013 38.9661C20.8194 40.4131 24.3679 40.9736 27.7972 40.6088C33.7217 39.9785 38.1811 37.7954 42.4626 33.4294C45.8265 29.9989 47.7693 26.7507 47.7693 24.5569C47.7693 24.105 47.6238 23.2923 47.4457 22.7505C46.7735 20.703 43.8698 16.7936 41.3821 14.5866C40.6169 13.9076 39.455 13.9429 38.7324 14.6672L37.5386 15.8637ZM23.5575 18.4127C21.2219 19.3197 19.4734 21.9423 19.4983 24.5009C19.5105 25.7439 19.8551 27.0406 20.2039 27.1554C20.4955 27.2514 28.7153 18.8596 28.5673 18.6171C28.3848 18.3186 26.7569 17.9557 25.6534 17.9678C25.1155 17.9738 24.1724 18.1739 23.5575 18.4127ZM27.4525 26.0753C23.5349 30.0446 23.2769 30.3516 23.6346 30.6206C23.8456 30.7793 24.4265 30.9712 24.9258 31.047C28.6681 31.6147 32.0689 29.0053 32.4496 25.2737C32.5649 24.1419 32.2139 22.1685 31.8575 21.9456C31.7456 21.8756 29.7633 23.7339 27.4525 26.0753Z" fill="#B0BEC5"/>
</svg>
