<svg width="57" height="75" viewBox="0 0 57 75" fill="none" xmlns="http://www.w3.org/2000/svg">
<path fill-rule="evenodd" clip-rule="evenodd" d="M25.6169 0.589102C22.1737 1.16136 17.4324 3.6839 15.2419 6.10879C6.30731 15.9981 9.80091 31.3406 22.0967 36.2128C29.9944 39.3423 39.4452 36.4391 44.0294 29.4749C47.4117 24.3368 48.2349 18.6294 46.3876 13.1266C43.4382 4.34041 34.717 -0.923899 25.6169 0.589102ZM25.9961 6.79066C23.6322 7.36496 21.749 8.42464 20.0132 10.1577C15.0801 15.083 15.0798 22.7538 20.0124 27.6838C25.3192 32.9877 33.89 32.4951 38.5007 26.6206C42.4742 21.558 42.0742 14.6842 37.5428 10.1551C34.3908 7.00493 30.1728 5.77587 25.9961 6.79066ZM23.2716 44.4236C12.2835 46.9082 4.12847 54.7992 1.68843 65.308C0.81182 69.0832 0.631076 71.987 1.20363 73.0939C2.17177 74.9664 4.62989 75.371 6.02395 73.8875C6.54694 73.3306 6.74226 72.6462 6.9577 70.6122C7.5078 65.4249 8.9313 61.8248 11.9171 58.0703C14.6871 54.5869 19.0084 51.8145 23.4313 50.6834C26.1574 49.9861 31.001 49.9234 33.6623 50.5511C40.9717 52.2743 46.9272 57.6246 49.2993 64.5987C50.0301 66.7472 50.6417 70.0242 50.6417 71.7914C50.6417 73.9848 53.0599 75.4652 55.002 74.4609C56.3786 73.7493 56.8733 72.3296 56.627 69.7977C55.4533 57.726 47.872 48.4037 36.4394 44.9743C34.2795 44.3265 33.1956 44.1907 29.5064 44.1047C26.4186 44.0326 24.5863 44.1262 23.2716 44.4236Z" fill="#90A4AE"/>
</svg>
