<svg width="53" height="53" viewBox="0 0 53 53" fill="none" xmlns="http://www.w3.org/2000/svg">
<path fill-rule="evenodd" clip-rule="evenodd" d="M6.05714 0.955386C4.97989 1.49245 4.86837 1.86516 4.78274 5.21668C4.69549 8.62054 4.95338 10.8601 5.58253 12.1641C6.15173 13.3438 7.41756 14.5509 8.79002 15.2228C9.90213 15.7672 10.0832 15.7908 13.6964 15.8631C17.7825 15.9448 18.6384 15.812 19.4267 14.9735C20.3215 14.022 19.9405 12.2421 18.7534 11.8287C18.4164 11.7114 16.646 11.6152 14.8193 11.6152C12.9924 11.6152 11.4475 11.534 11.3861 11.4344C11.1162 10.9985 15.0598 8.13419 17.4465 7.03236C21.9955 4.93277 26.7483 4.50487 31.8155 5.73847C35.9439 6.74376 40.1271 9.25068 42.7882 12.3144C46.3515 16.4169 48.162 21.2668 48.1677 26.7242C48.1739 32.6286 46.2108 37.4912 42.0737 41.8184C39.0735 44.9569 35.2299 47.0732 30.8414 48.0036C29.0292 48.3877 24.6456 48.4327 22.6866 48.0873C15.7738 46.8683 9.94882 42.3789 6.86283 35.8914C5.66448 33.3726 4.75848 29.6598 4.74951 27.2331C4.74768 26.6938 4.6435 26.0523 4.51833 25.8075C3.66676 24.1441 1.40095 24.3091 0.663343 26.0883C0.448668 26.6063 0.446425 27.1525 0.651722 28.9975C1.40115 35.7309 3.71079 40.5716 8.39655 45.2296C17.068 53.8496 30.8084 55.0818 41.2388 48.1744C43.2033 46.8736 46.7904 43.3015 48.0491 41.393C51.0637 36.8217 52.5049 32.0596 52.5 26.6865C52.4933 19.5169 49.9369 13.334 44.9203 8.35476C42.2278 5.68226 39.692 3.96516 36.5498 2.68654C30.9022 0.388584 25.4558 0.0531461 19.5266 1.63848C16.3273 2.49367 13.0693 4.14683 10.5633 6.18613C9.66992 6.91301 9.32844 7.08979 9.20224 6.89102C9.10948 6.74499 9.03221 5.60181 9.03038 4.3509C9.02875 3.09978 8.97003 1.92748 8.90031 1.7454C8.76535 1.39428 7.388 0.608339 6.94581 0.630335C6.80106 0.637463 6.40127 0.783695 6.05714 0.955386ZM25.6079 13.9488C25.2523 14.1032 24.8623 14.4144 24.7414 14.6403C24.5977 14.9085 24.5215 17.2252 24.5215 21.3209V27.5912L28.3499 31.4158C32.1309 35.193 32.1894 35.2405 33.0546 35.2405C34.2877 35.2405 35.1227 34.4095 35.1227 33.1824C35.1227 32.3348 35.0493 32.2415 31.8608 29.0348L28.5989 25.7545L28.5944 20.3651C28.5903 15.5664 28.5512 14.9281 28.2376 14.5413C27.5157 13.6511 26.7104 13.4696 25.6079 13.9488Z" fill="#90A4AE"/>
</svg>
