<svg width="48" height="38" viewBox="0 0 48 38" fill="none" xmlns="http://www.w3.org/2000/svg">
<path fill-rule="evenodd" clip-rule="evenodd" d="M19.5914 0.702451C16.198 1.30917 12.1839 3.03558 9.35429 5.10537C7.35494 6.56787 4.74888 9.18671 3.10981 11.3805C-0.937535 16.7977 -1.02544 20.9112 2.79462 26.1338C5.98617 30.4971 9.4499 33.4375 13.7422 35.4275C17.0624 36.9668 20.027 37.5919 24.0056 37.5919C28.2598 37.5919 31.4551 36.8597 35.0328 35.0651C38.7464 33.2023 42.1891 30.2506 44.9016 26.6034C46.5911 24.3323 47.4316 22.6274 47.8086 20.7083C48.396 17.7183 47.6585 15.1986 45.2182 11.8581C40.63 5.57759 34.99 1.86479 28.2543 0.690805C26.1691 0.327339 21.6554 0.333349 19.5914 0.702451ZM22.2212 4.37318C16.0002 4.82361 10.3904 8.18121 6.1216 14.0089C4.40964 16.346 3.99997 17.3126 4.0056 19.0016C4.01162 20.7622 4.49248 21.8299 6.45069 24.4296C10.0724 29.2373 14.835 32.3567 20.0892 33.3625C22.28 33.7818 26.0658 33.7508 28.232 33.2959C33.5591 32.1771 38.2112 29.0049 41.8897 23.9831C43.6016 21.646 44.0113 20.6794 44.0057 18.9903C43.9998 17.285 43.5451 16.228 41.8025 13.8704C36.7516 7.03728 30.0846 3.80365 22.2212 4.37318ZM21.5637 9.32533C17.0564 10.5628 14.0236 14.5068 14.0611 19.0824C14.082 21.6398 15.0441 24.0124 16.8071 25.8552C20.6131 29.8333 27.0016 29.964 30.9367 26.1443C33.8836 23.2837 34.7798 18.6879 33.118 14.9575C32.0945 12.6596 29.8804 10.5861 27.4836 9.68072C25.8213 9.05297 23.1421 8.89199 21.5637 9.32533ZM22.3239 13.194C21.4003 13.475 19.8724 14.541 19.2355 15.3489C17.3866 17.6941 17.64 21.0928 19.8264 23.2794C21.056 24.509 22.0824 24.9091 24.0056 24.9091C25.9351 24.9091 26.8925 24.5327 28.1396 23.2837C29.4918 21.9292 29.9225 20.8937 29.9225 18.996C29.9225 17.6817 29.8412 17.2341 29.4627 16.465C28.8695 15.2597 27.6014 13.9984 26.4843 13.5032C25.4676 13.0524 23.3155 12.8924 22.3239 13.194Z" fill="#B0BEC5"/>
</svg>
