<svg width="48" height="48" viewBox="0 0 48 48" fill="none" xmlns="http://www.w3.org/2000/svg">
<path fill-rule="evenodd" clip-rule="evenodd" d="M17.1864 0.114223C14.3507 0.567073 12.4633 1.53561 10.4045 3.59441C7.96983 6.0293 6.88653 8.57199 6.87449 11.8813C6.86697 13.9904 7.14748 15.2268 8.06973 17.1492C9.309 19.7324 11.0286 21.4519 13.6117 22.6912C15.5315 23.6123 16.7678 23.8934 18.8796 23.8891C23.3735 23.8799 27.2751 21.4864 29.3982 17.4361C30.313 15.6911 30.693 14.0884 30.693 11.9754C30.693 8.29317 29.1956 5.08465 26.3786 2.73066C23.9509 0.702156 20.1964 -0.366659 17.1864 0.114223ZM17.6567 4.007C13.889 4.75108 11.3447 7.31842 10.8312 10.8944C10.0813 16.1182 14.8271 20.7769 20.0218 19.9162C25.0872 19.0767 28.0905 13.8585 26.2851 9.03311C25.5662 7.11147 23.6182 5.1966 21.6037 4.43106C20.653 4.06983 18.5065 3.83918 17.6567 4.007ZM34.1188 20.2432C33.2741 20.589 32.9941 21.1645 32.8959 22.7578L32.8019 24.2836L32.0427 24.5026C30.7969 24.862 29.4601 25.6213 28.4073 26.5678L27.4164 27.4588L26.696 27.054C24.8011 25.9889 24.4075 25.892 23.6177 26.2959C22.5451 26.8446 22.2095 28.2383 22.9297 29.1538C23.1394 29.4206 23.781 29.9075 24.3556 30.2361C25.3042 30.7789 25.3883 30.8792 25.2729 31.3288C24.8261 33.0697 24.8265 34.5739 25.2744 36.7156C25.3849 37.243 25.3273 37.3163 24.3964 37.8332C22.9902 38.6139 22.5483 39.1074 22.5483 39.8965C22.5483 41.9318 24.1215 42.5308 26.2253 41.2968L27.3624 40.6297L28.2822 41.4624C29.2605 42.3481 30.7841 43.1983 32.0963 43.5911L32.8959 43.8304L32.8967 45.1645C32.8972 46.1573 32.9917 46.6535 33.2658 47.1031C33.6908 47.8002 34.5792 48.1179 35.435 47.8788C36.447 47.5962 36.8468 46.7278 36.8468 44.8118V43.8304L37.6464 43.5943C38.8498 43.2391 40.4386 42.3425 41.4639 41.4402L42.3798 40.6344L43.4763 41.2876C45.3091 42.3793 46.8202 42.0377 47.1154 40.4647C47.3303 39.3187 46.8897 38.6879 45.2483 37.7923L44.337 37.2951L44.4926 36.535C44.6941 35.5501 44.6928 32.6076 44.4901 31.6141L44.3323 30.8397L45.3821 30.2391C45.9593 29.909 46.6033 29.4206 46.8131 29.1538C47.7472 27.9662 46.7916 26.0826 45.2572 26.0869C44.8487 26.0881 44.4713 26.2532 43.0422 27.0566L42.3173 27.4639L41.5104 26.723C40.4493 25.7487 39.4804 25.1656 38.0842 24.661L36.9409 24.2479L36.8393 22.8423C36.7272 21.2945 36.3658 20.5355 35.6019 20.245C35.0437 20.033 34.6339 20.0324 34.1188 20.2432ZM33.2366 28.2321C30.1384 29.1263 28.2243 32.2998 28.9524 35.3352C29.7154 38.5165 32.7631 40.5516 35.9001 39.9747C38.8842 39.4261 40.8284 37.039 40.8301 33.9218C40.8316 31.6562 39.4732 29.5754 37.3093 28.5276C36.2988 28.0387 34.3879 27.8998 33.2366 28.2321ZM15.33 28.452C11.6124 29.1775 8.50678 30.8858 5.8815 33.6495C4.28194 35.3334 3.60088 36.2976 2.61372 38.2759C1.69353 40.1202 1.1468 42.0349 0.917651 44.2163C0.709946 46.1952 0.80458 46.81 1.41039 47.4158C2.72322 48.7288 4.67515 47.6899 4.67515 45.6782C4.67515 44.5348 5.16695 42.2202 5.67981 40.9508C7.10026 37.4339 9.98047 34.4871 13.3256 33.1278C13.9498 32.8742 15.1979 32.4947 16.0995 32.2846C17.0009 32.0744 17.8889 31.7663 18.0729 31.5998C18.6113 31.1125 18.8123 30.0888 18.511 29.3679C18.0772 28.3293 17.2214 28.0829 15.33 28.452Z" fill="#90A4AE"/>
</svg>
