<svg width="85" height="85" viewBox="0 0 85 85" fill="none" xmlns="http://www.w3.org/2000/svg">
<path fill-rule="evenodd" clip-rule="evenodd" d="M57.6881 0.67966C53.4504 1.81915 49.7143 4.94791 47.6821 9.05983C43.3474 17.8313 48.3205 28.6432 57.8291 31.1198C66.3783 33.3466 75.2589 27.8943 77.1853 19.2359C79.7146 7.86627 68.9746 -2.3557 57.6881 0.67966ZM58.1453 8.13271C49.8808 12.1496 52.6068 24.4467 61.7503 24.3946C65.271 24.3746 67.7138 22.9857 69.2757 20.1162C71.6124 15.823 70.2301 10.9616 65.9146 8.2946C65.073 7.77451 64.0987 7.55133 62.2746 7.46022C60.1484 7.35437 59.544 7.45268 58.1453 8.13271ZM24.7423 14.3089C20.5438 14.732 16.291 17.3915 13.7656 21.1734C7.4861 30.5767 13.0282 43.408 24.2337 45.4104C33.5423 47.0742 42.5785 39.4796 42.5785 29.9931C42.5785 25.6311 41.035 21.8993 37.9291 18.7519C34.5271 15.3049 29.9993 13.7794 24.7423 14.3089ZM24.4903 21.5775C23.6441 21.8141 22.6855 22.2093 22.3601 22.4561C19.4853 24.6351 18.3314 26.7945 18.3376 29.9836C18.3461 34.6306 21.5991 38.0412 26.3897 38.4257C28.0667 38.5604 28.711 38.4496 30.19 37.7725C33.6117 36.206 35.3719 33.4531 35.3654 29.6794C35.3559 24.1262 29.9036 20.0644 24.4903 21.5775ZM55.032 39.144C50.6801 40.0715 46.386 42.2564 43.7672 44.8752C42.8515 45.7909 42.5785 46.3283 42.5785 47.2161C42.5785 49.4361 43.993 50.9577 46.0566 50.9577C47.0205 50.9577 47.942 50.5143 49.2637 49.4145C50.6641 48.2491 53.6624 46.8153 55.9247 46.229C63.7425 44.2034 72.2305 48.2527 75.6853 55.6563C76.3719 57.1278 77.0198 59.0318 77.1253 59.8882C77.2309 60.7445 77.3996 62.1078 77.5009 62.9179C77.963 66.6248 81.974 67.8934 84.0153 64.9787C85.1919 63.2991 84.1864 56.8128 82.0661 52.4046C79.2837 46.6194 74.0274 41.9254 68.1769 40.0013C63.322 38.4047 59.6306 38.1641 55.032 39.144ZM22.9152 52.8028C13.9986 54.5266 7.05154 59.702 3.26209 67.4438C1.49174 71.0608 0.936249 73.3467 0.721919 77.901L0.541016 81.74L1.69984 82.8988C2.94715 84.1461 4.14956 84.3811 5.68985 83.6794C7.16591 83.007 7.58343 81.9193 7.86265 78.0194C8.26607 72.3875 9.97383 68.4846 13.4909 65.1582C15.8496 62.9274 17.6733 61.8211 20.785 60.7324C23.0139 59.9524 23.9223 59.8151 26.8479 59.8151C29.7718 59.8151 30.6855 59.953 32.9291 60.734C36.1424 61.8528 38.753 63.5387 40.8868 65.8733C44.1506 69.4445 45.4599 72.651 45.8551 78.042C46.1523 82.0936 46.4171 82.8395 47.8155 83.5628C49.4338 84.3994 50.6955 84.1992 51.9959 82.8988L53.1548 81.74L52.9676 77.901C52.7497 73.4296 52.1929 71.1352 50.4396 67.4821C47.1915 60.7153 41.2028 55.633 34.0489 53.5723C31.6467 52.8805 24.9186 52.4154 22.9152 52.8028Z" fill="#9D9D9D"/>
</svg>
