<svg width="49" height="49" viewBox="0 0 49 49" fill="none" xmlns="http://www.w3.org/2000/svg">
<path fill-rule="evenodd" clip-rule="evenodd" d="M27.1111 0.817915C32.8717 1.53535 37.7595 4.02118 41.7633 8.26977C45.1105 11.8216 47.2331 16.2338 47.9688 21.1695C48.3505 23.73 48.3294 25.5657 47.8883 28.1741C47.4147 30.9747 46.9224 32.5353 45.7806 34.8583C43.518 39.4606 39.7082 43.1891 34.747 45.6562C32.3487 46.8487 30.7364 47.3888 27.6711 48.0271C25.2403 48.5334 25.2015 48.5353 16.7737 48.5541C8.42817 48.5727 8.29922 48.5673 7.07358 48.1435C3.97234 47.0711 1.60976 44.677 0.654583 41.6392C0.243717 40.332 0.233944 40.0956 0.239021 31.5582C0.244659 21.9462 0.288826 21.4481 1.48083 17.5592C3.88683 9.70934 10.5759 3.30901 18.4653 1.30843C19.8058 0.968321 23.109 0.536468 24.184 0.560533C24.7602 0.573318 26.0774 0.689318 27.1111 0.817915ZM26.2654 4.66285C29.4205 4.99882 32.534 6.13815 35.2992 7.96896C39.7809 10.9365 42.6128 15.1463 43.9582 20.8418C44.3666 22.5707 44.2627 27.1995 43.7727 29.1027C43.3062 30.9151 42.3707 33.1743 41.4578 34.694C39.8272 37.4081 36.7165 40.2791 33.7412 41.8163C28.8661 44.335 25.8985 44.7917 15.0821 44.6879L8.50372 44.6247L7.55643 44.1245C6.4039 43.5161 5.13446 42.1767 4.58695 40.9917C4.19638 40.1464 4.17853 39.8302 4.11988 32.7803C4.05786 25.3237 4.20766 22.3972 4.76456 20.1838C6.29827 14.0886 10.4725 8.91915 15.8777 6.4211C17.3902 5.72209 17.6016 5.6482 19.8187 5.0447C21.39 4.61698 24.246 4.44777 26.2654 4.66285ZM35.0052 21.7208C35.212 21.7755 35.6561 22.0274 35.9922 22.2808C38.2275 23.9656 37.0708 27.4234 34.2726 27.4213C31.3177 27.4193 30.2381 23.8883 32.6558 22.1334C33.155 21.771 34.3808 21.5557 35.0052 21.7208ZM25.1863 21.8565C26.1524 22.2096 26.4546 22.4933 26.8741 23.4395C27.76 25.438 26.4018 27.4183 24.1435 27.4208C23.1449 27.4219 22.9936 27.3642 22.3012 26.7171C19.9424 24.5125 22.173 20.7548 25.1863 21.8565ZM15.0597 21.7802C16.2066 22.1411 17.0556 23.3414 17.0556 24.602C17.0556 25.5401 16.6966 26.2762 15.9202 26.9297C15.125 27.5992 13.4768 27.631 12.5256 26.9953C10.8236 25.858 10.8746 23.2374 12.6207 22.093C13.2078 21.7082 14.3609 21.5602 15.0597 21.7802Z" fill="#B0BEC5"/>
</svg>
