<svg width="331" height="611" viewBox="0 0 331 611" fill="none" xmlns="http://www.w3.org/2000/svg">
<path d="M-62.9251 47.472C-60.4408 0.0695832 1.25001 -16.4604 27.1026 23.3492L94.7521 127.52C106.314 145.324 128.024 153.657 148.529 148.163L268.506 116.015C314.357 103.73 349.141 157.293 319.269 194.182L241.101 290.712C227.742 307.209 226.525 330.432 238.086 348.236L305.736 452.407C331.588 492.216 291.396 541.85 247.081 524.839L131.121 480.327C111.303 472.719 88.8402 478.738 75.4809 495.235L-2.68679 591.764C-32.559 628.654 -92.184 605.766 -89.6998 558.363L-83.1991 434.324C-82.0882 413.125 -94.7538 393.621 -114.572 386.014L-230.532 341.501C-274.846 324.49 -271.504 260.711 -225.654 248.425L-105.676 216.277C-85.1716 210.783 -70.5367 192.71 -69.4257 171.511L-62.9251 47.472Z" fill="#D9D9D9"/>
</svg>
